name rise37.2698peak67.6939fall79.5734.mot
datacolumns 19
datarows 18
range 6.12831000000000 6.15664600000000
endheader
time	ground_force1_vx	ground_force1_vy	ground_force1_vz	ground_force1_px	ground_force1_py	ground_force1_pz	ground_force2_vx	ground_force2_vy	ground_force2_vz	ground_force2_px	ground_force2_py	ground_force2_pz	ground_torque1_x	ground_torque1_y	ground_torque1_z	ground_torque2_x	ground_torque2_y	ground_torque2_z	
6.12831000000000	9.55152500000000	724.05984300000000	43.80865300000000	0.19303200000000	0.00000000000000	0.11969300000000	0.00000000000000	0.00000000000000	0.00000000000000	0.00000000000000	0.00000000000000	0.00000000000000	0.00000000000000	14.54452500000000	0.00000000000000	0.00000000000000	0.00000000000000	0.00000000000000	
6.12998100000000	9.01267200000000	724.13962300000003	43.79683800000000	0.19196200000000	0.00000000000000	0.11972000000000	0.00000000000000	0.00000000000000	0.00000000000000	0.00000000000000	0.00000000000000	0.00000000000000	0.00000000000000	14.60997100000000	0.00000000000000	0.00000000000000	0.00000000000000	0.00000000000000	
6.13164300000000	8.46483200000000	724.21911599999999	43.78436400000000	0.19088200000000	0.00000000000000	0.11974600000000	0.00000000000000	0.00000000000000	0.00000000000000	0.00000000000000	0.00000000000000	0.00000000000000	0.00000000000000	14.67747000000000	0.00000000000000	0.00000000000000	0.00000000000000	0.00000000000000	
6.13331300000000	7.90816800000000	724.29889000000003	43.77132400000000	0.18979400000000	0.00000000000000	0.11977300000000	0.00000000000000	0.00000000000000	0.00000000000000	0.00000000000000	0.00000000000000	0.00000000000000	0.00000000000000	14.74704700000000	0.00000000000000	0.00000000000000	0.00000000000000	0.00000000000000	
6.13497800000000	7.34286600000000	724.37962900000002	43.75782200000000	0.18869900000000	0.00000000000000	0.11980100000000	0.00000000000000	0.00000000000000	0.00000000000000	0.00000000000000	0.00000000000000	0.00000000000000	0.00000000000000	14.81872800000000	0.00000000000000	0.00000000000000	0.00000000000000	0.00000000000000	
6.13664200000000	6.76913000000000	724.46213200000000	43.74396900000000	0.18759700000000	0.00000000000000	0.11982800000000	0.00000000000000	0.00000000000000	0.00000000000000	0.00000000000000	0.00000000000000	0.00000000000000	0.00000000000000	14.89253600000000	0.00000000000000	0.00000000000000	0.00000000000000	0.00000000000000	
6.13832200000000	6.18718100000000	724.54731100000004	43.72989000000000	0.18649000000000	0.00000000000000	0.11985500000000	0.00000000000000	0.00000000000000	0.00000000000000	0.00000000000000	0.00000000000000	0.00000000000000	0.00000000000000	14.96849000000000	0.00000000000000	0.00000000000000	0.00000000000000	0.00000000000000	
6.13997700000000	5.59726000000000	724.63618899999994	43.71571300000000	0.18537700000000	0.00000000000000	0.11988200000000	0.00000000000000	0.00000000000000	0.00000000000000	0.00000000000000	0.00000000000000	0.00000000000000	0.00000000000000	15.04660900000000	0.00000000000000	0.00000000000000	0.00000000000000	0.00000000000000	
6.14164300000000	4.99962400000000	724.72989500000006	43.70157700000000	0.18426100000000	0.00000000000000	0.11990900000000	0.00000000000000	0.00000000000000	0.00000000000000	0.00000000000000	0.00000000000000	0.00000000000000	0.00000000000000	15.12690500000000	0.00000000000000	0.00000000000000	0.00000000000000	0.00000000000000	
6.14330900000000	4.39454700000000	724.82965600000000	43.68762600000000	0.18314100000000	0.00000000000000	0.11993600000000	0.00000000000000	0.00000000000000	0.00000000000000	0.00000000000000	0.00000000000000	0.00000000000000	0.00000000000000	15.20938900000000	0.00000000000000	0.00000000000000	0.00000000000000	0.00000000000000	
6.14497600000000	3.78231600000000	724.93680099999995	43.67401200000000	0.18201900000000	0.00000000000000	0.11996300000000	0.00000000000000	0.00000000000000	0.00000000000000	0.00000000000000	0.00000000000000	0.00000000000000	0.00000000000000	15.29406600000000	0.00000000000000	0.00000000000000	0.00000000000000	0.00000000000000	
6.14664800000000	3.16323500000000	725.05274899999995	43.66089300000000	0.18089600000000	0.00000000000000	0.11999000000000	0.00000000000000	0.00000000000000	0.00000000000000	0.00000000000000	0.00000000000000	0.00000000000000	0.00000000000000	15.38093700000000	0.00000000000000	0.00000000000000	0.00000000000000	0.00000000000000	
6.14831500000000	2.53761900000000	725.17900299999997	43.64843000000000	0.17977200000000	0.00000000000000	0.12001600000000	0.00000000000000	0.00000000000000	0.00000000000000	0.00000000000000	0.00000000000000	0.00000000000000	0.00000000000000	15.46999500000000	0.00000000000000	0.00000000000000	0.00000000000000	0.00000000000000	
6.14997900000000	1.90579600000000	725.31714899999997	43.63679100000000	0.17864800000000	0.00000000000000	0.12004200000000	0.00000000000000	0.00000000000000	0.00000000000000	0.00000000000000	0.00000000000000	0.00000000000000	0.00000000000000	15.56123100000000	0.00000000000000	0.00000000000000	0.00000000000000	0.00000000000000	
6.15164400000000	1.26810500000000	725.46884399999999	43.62614800000000	0.17752600000000	0.00000000000000	0.12006700000000	0.00000000000000	0.00000000000000	0.00000000000000	0.00000000000000	0.00000000000000	0.00000000000000	0.00000000000000	15.65462800000000	0.00000000000000	0.00000000000000	0.00000000000000	0.00000000000000	
6.15331300000000	0.62489700000000	725.63581299999998	43.61667500000000	0.17640500000000	0.00000000000000	0.12009200000000	0.00000000000000	0.00000000000000	0.00000000000000	0.00000000000000	0.00000000000000	0.00000000000000	0.00000000000000	15.75016300000000	0.00000000000000	0.00000000000000	0.00000000000000	0.00000000000000	
6.15497900000000	-0.02347000000000	725.81984000000000	43.60855100000000	0.17528600000000	0.00000000000000	0.12011700000000	0.00000000000000	0.00000000000000	0.00000000000000	0.00000000000000	0.00000000000000	0.00000000000000	0.00000000000000	15.84780700000000	0.00000000000000	0.00000000000000	0.00000000000000	0.00000000000000	
6.15664600000000	-0.67662800000000	726.02275899999995	43.60195700000000	0.17417000000000	0.00000000000000	0.12014000000000	0.00000000000000	0.00000000000000	0.00000000000000	0.00000000000000	0.00000000000000	0.00000000000000	0.00000000000000	15.94752600000000	0.00000000000000	0.00000000000000	0.00000000000000	0.00000000000000	
